<svg width="248" height="56" viewBox="0 0 248 56" fill="none" xmlns="http://www.w3.org/2000/svg">
<path d="M13.2302 35.2302C8.98975 23.5643 4.57968 11.9915 0 0.511841C1.65999 0.545096 3.00789 0.561721 4.04369 0.561721C5.17448 0.561721 6.52237 0.545096 8.08738 0.511841L15.3572 21.5557L18.3934 29.8395C19.0515 28.5891 20.0421 26.5783 21.3651 23.807C22.6881 21.0358 23.6357 18.9895 24.2079 17.6681C23.4141 15.296 22.4065 12.4238 21.1853 9.05175C19.964 5.67968 18.8966 2.83305 17.9829 0.511841C19.4507 0.545096 20.7386 0.561721 21.8468 0.561721C23.0748 0.561721 24.3639 0.545096 25.7141 0.511841C26.5328 3.5824 27.4374 6.61748 28.428 9.61709C29.8731 6.54875 31.1984 3.51367 32.4038 0.511841C33.91 0.545096 35.1222 0.561721 36.0404 0.561721C37.0966 0.561721 38.3076 0.545096 39.6736 0.511841C38.5655 2.68007 37.1938 5.45133 35.5587 8.82562C33.9236 12.1999 32.6028 15.0133 31.5964 17.2658C31.9809 18.4896 32.6933 20.5602 33.7336 23.4778C34.7739 26.3954 35.5395 28.4572 36.0302 29.6633L43.0083 15.1208L48.0562 4.23309L49.715 0.518488C51.3773 0.551743 52.7116 0.568369 53.718 0.568369C54.8262 0.568369 56.1684 0.551743 57.7447 0.518488L52.8665 9.99952L42.6894 30.498L40.4098 35.2302C38.5575 35.1969 36.9744 35.1803 35.6605 35.1803C34.2764 35.1803 32.6842 35.1969 30.884 35.2302C29.8641 31.8115 28.7333 28.4528 27.4917 25.1539C25.8498 28.4528 24.2949 31.8115 22.8272 35.2302C20.9772 35.1969 19.3772 35.1803 18.027 35.1803C16.6022 35.1803 15.0033 35.1969 13.2302 35.2302Z" fill="#9794FF"/>
<path d="M50.1017 20.5812C54.3444 32.2449 58.7545 43.8155 63.3319 55.2929C61.6719 55.2597 60.324 55.2431 59.2882 55.2431C58.1575 55.2431 56.8096 55.2608 55.2446 55.2963L47.9679 34.2557L44.9148 25.9719C44.2612 27.2245 43.2718 29.2365 41.9465 32.0077C40.6212 34.779 39.6748 36.8253 39.1071 38.1466C39.9032 40.5166 40.9118 43.3887 42.1331 46.763C43.3543 50.1373 44.4241 52.9839 45.3423 55.3029C43.87 55.2697 42.5809 55.253 41.475 55.253C40.2469 55.253 38.9612 55.2697 37.6111 55.3062C36.7901 52.2357 35.8855 49.2006 34.8972 46.201C33.4566 49.2715 32.1324 52.3066 30.9247 55.3062C29.4219 55.2763 28.2108 55.2597 27.2915 55.2597C26.2365 55.2597 25.022 55.2597 23.6549 55.3095C24.7631 53.1413 26.1347 50.3701 27.7698 46.9958C29.405 43.6215 30.7234 40.807 31.7253 38.5523C31.3431 37.3285 30.6296 35.2578 29.5847 32.3403C28.5399 29.4227 27.7744 27.3609 27.2881 26.1548L20.3338 40.7272L15.2894 51.6016L13.6339 55.3162C11.9694 55.283 10.635 55.2663 9.6309 55.2663C8.52047 55.2663 7.17709 55.2841 5.60078 55.3195L10.462 45.8285L20.6391 25.3234L22.9188 20.5912C24.771 20.6245 26.3541 20.6411 27.6681 20.6411C29.0522 20.6411 30.9112 20.6145 32.7091 20.5812C33.8557 24.0065 34.7988 26.3643 36.0302 29.6633C37.7468 26.1947 38.7747 23.9267 40.3792 20.5812C42.2281 20.6145 43.9378 20.6345 45.288 20.6345C46.7218 20.6322 48.3264 20.6145 50.1017 20.5812Z" fill="#141448"/>
<path d="M84.4927 21.2464C82.064 14.5605 79.5411 7.92813 76.924 1.34918C77.8757 1.36861 78.6489 1.37833 79.2437 1.37833C79.898 1.37833 80.6712 1.36861 81.5634 1.34918L85.7269 13.4187L87.4667 18.1707C87.8434 17.4516 88.4084 16.3 89.1618 14.716C89.9251 13.1223 90.4704 11.9464 90.7975 11.1885C90.3415 9.82797 89.7616 8.1808 89.0577 6.24695C88.3638 4.31311 87.7542 2.68052 87.2288 1.34918C88.0714 1.36861 88.8099 1.37833 89.4444 1.37833C90.1482 1.37833 90.8867 1.36861 91.6599 1.34918C92.1259 3.1081 92.6413 4.84759 93.2064 6.56764C94.0391 4.80872 94.8024 3.06923 95.4963 1.34918C96.3588 1.36861 97.0527 1.37833 97.5781 1.37833C98.1828 1.37833 98.8767 1.36861 99.6598 1.34918C99.0254 2.59306 98.2373 4.18192 97.2956 6.11576C96.3637 8.04961 95.6103 9.66276 95.0354 10.9552C95.2535 11.6549 95.6599 12.8405 96.2547 14.5119C96.8495 16.1834 97.2857 17.3641 97.5632 18.0541L101.563 9.71621L104.463 3.47738L105.414 1.34918C106.366 1.36861 107.129 1.37833 107.704 1.37833C108.339 1.37833 109.107 1.36861 110.009 1.34918L107.214 6.78629L101.37 18.5351L100.061 21.2464C99.0006 21.227 98.0936 21.2172 97.3402 21.2172C96.5471 21.2172 95.6351 21.227 94.6041 21.2464C94.0193 19.2834 93.3749 17.3544 92.6711 15.4594C91.7293 17.3544 90.8371 19.2834 89.9945 21.2464C88.9338 21.227 88.0169 21.2172 87.2436 21.2172C86.4307 21.2172 85.5138 21.227 84.4927 21.2464Z" fill="#141448"/>
<path d="M123.868 17.9375C123.739 18.5108 123.555 19.5409 123.318 21.0277C122.247 21.2512 121.345 21.4019 120.611 21.4796C119.878 21.5574 119.139 21.5962 118.396 21.5962C117.097 21.5962 115.932 21.4699 114.901 21.2172C113.88 20.9646 112.983 20.503 112.21 19.8324C111.437 19.1522 110.867 18.3213 110.5 17.3398C110.133 16.3583 109.95 15.3282 109.95 14.2496C109.95 13.0543 110.163 11.8979 110.589 10.7803C111.015 9.65304 111.61 8.73471 112.373 8.02531C113.147 7.30619 114.024 6.80087 115.005 6.50933C115.987 6.20808 117.013 6.05746 118.083 6.05746C119.095 6.05746 120.056 6.18379 120.968 6.43645C121.88 6.6794 122.643 7.08268 123.258 7.64632C123.883 8.20995 124.358 8.8902 124.686 9.68706C125.023 10.4742 125.191 11.3537 125.191 12.3254C125.191 12.7822 125.142 13.2535 125.042 13.7394L114.143 13.754C114.123 14.1135 114.113 14.4002 114.113 14.614C114.113 15.2651 114.227 15.8627 114.455 16.4069C114.683 16.9511 115.015 17.4127 115.451 17.7917C115.888 18.1707 116.408 18.4525 117.013 18.6372C117.618 18.8121 118.212 18.8995 118.797 18.8995C119.481 18.8995 120.22 18.8267 121.013 18.6809C121.816 18.5351 122.767 18.2873 123.868 17.9375ZM114.262 12.0485L121.221 12.0631C121.221 11.5966 121.206 11.2516 121.176 11.0281C121.147 10.8046 121.077 10.5519 120.968 10.2701C120.869 9.97859 120.73 9.72593 120.552 9.51214C120.373 9.28863 120.165 9.10399 119.927 8.95822C119.689 8.81246 119.412 8.7007 119.095 8.62296C118.787 8.54521 118.455 8.50634 118.098 8.50634C117.682 8.50634 117.276 8.56951 116.879 8.69584C116.492 8.82217 116.136 9.00681 115.808 9.24976C115.481 9.4927 115.214 9.7648 115.005 10.0661C114.807 10.3673 114.658 10.6588 114.559 10.9407C114.46 11.2128 114.361 11.582 114.262 12.0485Z" fill="#141448"/>
<path d="M127.451 21.2464C127.63 19.4 127.823 16.1931 128.031 11.6258C128.249 7.04867 128.363 3.62315 128.373 1.34918C129.256 1.36861 130.019 1.37833 130.663 1.37833C131.308 1.37833 131.997 1.36861 132.73 1.34918C132.562 2.71939 132.428 4.44916 132.329 6.53849C133.3 6.35385 134.073 6.23238 134.648 6.17407C135.223 6.10605 135.793 6.07203 136.358 6.07203C137.915 6.07203 139.223 6.31498 140.284 6.80087C141.355 7.27704 142.212 8.0739 142.856 9.19145C143.501 10.2993 143.823 11.6452 143.823 13.2292C143.823 14.337 143.659 15.4157 143.332 16.4652C143.015 17.505 142.534 18.4331 141.89 19.2494C141.255 20.056 140.482 20.6487 139.57 21.0277C138.658 21.4067 137.667 21.5962 136.596 21.5962C136.081 21.5962 135.6 21.5476 135.154 21.4505C134.718 21.363 134.311 21.2318 133.935 21.0569C133.568 20.882 133.236 20.6779 132.938 20.4447C132.651 20.2114 132.408 19.9782 132.21 19.745C132.021 19.5118 131.798 19.1862 131.541 18.7683L131.481 21.2464C130.668 21.227 130.029 21.2172 129.563 21.2172C129.206 21.2172 128.502 21.227 127.451 21.2464ZM132.046 9.51214L131.927 12.0048C131.897 12.5392 131.883 13.0591 131.883 13.5645C131.883 14.7695 132.006 15.7218 132.254 16.4215C132.512 17.1115 132.943 17.6459 133.548 18.0249C134.153 18.4039 134.832 18.5934 135.585 18.5934C136.408 18.5934 137.122 18.3796 137.726 17.9521C138.331 17.5148 138.792 16.8782 139.109 16.0425C139.436 15.2068 139.6 14.3273 139.6 13.4041C139.6 12.0728 139.238 11.0038 138.514 10.1972C137.791 9.39067 136.725 8.98738 135.317 8.98738C134.861 8.98738 134.386 9.02625 133.89 9.10399C133.394 9.17201 132.78 9.30806 132.046 9.51214Z" fill="#141448"/>
<path d="M146.41 21.2464C146.549 19.5944 146.693 17.126 146.841 13.8414C147 10.5568 147.079 8.08362 147.079 6.42187C147.922 6.44131 148.606 6.45103 149.131 6.45103C149.736 6.45103 150.39 6.44131 151.094 6.42187L150.975 8.76872C151.292 8.31199 151.58 7.94271 151.838 7.66089C152.105 7.36936 152.447 7.10212 152.864 6.85918C153.28 6.61623 153.766 6.42673 154.321 6.29068C154.886 6.14492 155.466 6.07203 156.061 6.07203C156.507 6.07203 156.938 6.11576 157.354 6.20322C157.771 6.28097 158.147 6.39758 158.484 6.55306C158.831 6.69883 159.124 6.86889 159.362 7.06325C159.61 7.25761 159.818 7.47626 159.986 7.7192C160.155 7.95243 160.338 8.30227 160.537 8.76872C160.755 8.4286 160.953 8.14678 161.131 7.92327C161.32 7.69005 161.567 7.45196 161.875 7.20902C162.182 6.96607 162.524 6.762 162.901 6.59679C163.277 6.43159 163.699 6.30526 164.165 6.2178C164.641 6.12062 165.131 6.07203 165.637 6.07203C166.499 6.07203 167.312 6.21294 168.075 6.49476C168.839 6.76686 169.439 7.20416 169.875 7.80666C170.311 8.39945 170.529 9.138 170.529 10.0223C170.529 10.4888 170.494 11.1739 170.425 12.0776C170.355 12.9814 170.271 14.4585 170.172 16.509C170.073 18.5497 170.018 20.1288 170.009 21.2464C169.285 21.227 168.645 21.2172 168.09 21.2172C167.436 21.2172 166.668 21.227 165.786 21.2464C165.875 19.9928 165.959 18.6809 166.038 17.3107L166.217 13.9726C166.266 13.1272 166.291 12.4129 166.291 11.8298C166.291 11.1399 166.177 10.62 165.949 10.2701C165.731 9.91057 165.448 9.6579 165.102 9.51214C164.764 9.35665 164.383 9.27891 163.957 9.27891C163.51 9.27891 163.104 9.36151 162.737 9.52671C162.38 9.69192 162.043 9.95916 161.726 10.3284C161.419 10.6977 161.181 11.1302 161.012 11.6258C160.844 12.1117 160.72 12.8016 160.641 13.6957C160.561 14.58 160.497 15.7461 160.447 17.1941L160.343 21.2464C159.52 21.227 158.836 21.2172 158.291 21.2172C157.746 21.2172 157.017 21.227 156.105 21.2464C156.175 20.4981 156.274 18.9676 156.403 16.6547C156.532 14.3419 156.596 12.7822 156.596 11.9756C156.596 11.548 156.561 11.1885 156.492 10.8969C156.423 10.5957 156.279 10.3139 156.061 10.0515C155.853 9.77938 155.605 9.58016 155.317 9.45383C155.03 9.3275 154.698 9.26433 154.321 9.26433C153.627 9.26433 153.017 9.48784 152.492 9.93486C151.967 10.3819 151.58 10.9795 151.332 11.7278C151.094 12.4761 150.921 13.9337 150.812 16.1008C150.713 18.2582 150.663 19.9734 150.663 21.2464C149.751 21.227 149.062 21.2172 148.596 21.2172C148.071 21.2172 147.342 21.227 146.41 21.2464Z" fill="#141448"/>
<path d="M174.737 9.67248C174.876 8.9728 174.96 8.48205 174.99 8.20023C175.03 7.91842 175.094 7.49083 175.183 6.91748C176.531 6.60651 177.721 6.38786 178.752 6.26153C179.783 6.1352 180.779 6.07203 181.741 6.07203C182.831 6.07203 183.832 6.19836 184.744 6.45103C185.656 6.69397 186.37 7.08754 186.886 7.63174C187.401 8.17594 187.659 8.95822 187.659 9.97859C187.659 10.5325 187.58 11.9464 187.421 14.2204C187.262 16.4847 187.168 18.8267 187.138 21.2464C186.385 21.227 185.691 21.2172 185.057 21.2172C184.452 21.2172 183.743 21.227 182.93 21.2464C183.059 20.0705 183.163 18.71 183.243 17.1649L183.436 13.5353C183.059 13.7783 182.772 13.9483 182.573 14.0455C182.375 14.1427 182.152 14.235 181.904 14.3225C181.656 14.4002 181.22 14.5265 180.596 14.7014C179.971 14.8666 179.471 15.0124 179.094 15.1387C178.717 15.2651 178.375 15.4108 178.068 15.576C177.771 15.7315 177.518 15.9113 177.31 16.1154C177.101 16.3097 176.948 16.5187 176.849 16.7422C176.759 16.956 176.715 17.1892 176.715 17.4419C176.715 17.85 176.834 18.2047 177.072 18.506C177.319 18.7975 177.627 19.0016 177.994 19.1182C178.36 19.2348 178.792 19.2931 179.287 19.2931C179.604 19.2931 179.937 19.2688 180.283 19.2202C180.64 19.1716 181.116 19.0502 181.711 18.8558C181.503 19.4097 181.26 20.2357 180.982 21.3338C180.279 21.4505 179.718 21.5233 179.302 21.5525C178.886 21.5817 178.499 21.5962 178.142 21.5962C176.893 21.5962 175.867 21.431 175.064 21.1006C174.261 20.7702 173.666 20.2455 173.28 19.5263C172.903 18.8072 172.715 18.0832 172.715 17.3544C172.715 16.9365 172.789 16.5235 172.938 16.1154C173.087 15.7072 173.305 15.3331 173.592 14.993C173.88 14.6529 174.251 14.3273 174.707 14.0163C175.163 13.6957 175.823 13.3895 176.685 13.098C177.547 12.7968 178.687 12.4955 180.105 12.1943C180.482 12.1165 180.873 12.0242 181.28 11.9173C181.686 11.8007 182.008 11.6889 182.246 11.582C182.494 11.4751 182.707 11.3391 182.886 11.1739C183.064 10.999 183.193 10.8192 183.272 10.6345C183.362 10.4499 183.406 10.2604 183.406 10.0661C183.406 9.68706 183.277 9.36637 183.02 9.10399C182.772 8.84161 182.445 8.66183 182.038 8.56465C181.642 8.45775 181.2 8.40431 180.715 8.40431C178.911 8.40431 176.918 8.82703 174.737 9.67248Z" fill="#141448"/>
<path d="M190.767 21.2464C190.995 19.0404 191.183 16.5624 191.332 13.8123C191.49 11.0621 191.58 8.59866 191.599 6.42187C192.511 6.44131 193.24 6.45103 193.785 6.45103C194.43 6.45103 195.114 6.44131 195.837 6.42187L195.674 8.89991C195.981 8.47233 196.249 8.13221 196.477 7.87955C196.715 7.62688 197.012 7.37908 197.369 7.13613C197.736 6.89319 198.122 6.69883 198.529 6.55306C198.945 6.4073 199.406 6.29068 199.912 6.20322C200.427 6.11576 200.962 6.07203 201.517 6.07203C202.4 6.07203 203.242 6.18379 204.045 6.4073C204.858 6.62109 205.512 6.96607 206.008 7.44224C206.504 7.91842 206.831 8.43832 206.99 9.00195C207.148 9.56559 207.227 10.1632 207.227 10.7949C207.227 11.0573 207.213 11.4751 207.183 12.0485L206.871 18.4185C206.831 19.3028 206.806 20.2455 206.796 21.2464C206.013 21.227 205.344 21.2172 204.789 21.2172C204.035 21.2172 203.277 21.227 202.514 21.2464C202.593 20.4009 202.692 18.9287 202.811 16.8296C202.93 14.7209 202.99 13.3264 202.99 12.6461C202.99 11.8784 202.866 11.2613 202.618 10.7949C202.37 10.3284 201.983 9.97373 201.458 9.73079C200.943 9.48784 200.382 9.36637 199.778 9.36637C199.183 9.36637 198.628 9.47812 198.112 9.70163C197.597 9.92514 197.151 10.2507 196.774 10.6783C196.378 11.1156 196.07 11.6549 195.852 12.2963C195.624 12.9765 195.456 14.0989 195.347 15.6635C195.247 17.0532 195.168 18.9141 195.109 21.2464C194.345 21.227 193.656 21.2172 193.042 21.2172C192.417 21.2172 191.659 21.227 190.767 21.2464Z" fill="#141448"/>
<path d="M219.659 18.1999C219.54 18.7343 219.351 19.7256 219.093 21.1735C218.261 21.3581 217.607 21.4748 217.131 21.5233C216.655 21.5719 216.209 21.5962 215.792 21.5962C215.059 21.5962 214.4 21.5282 213.815 21.3922C213.24 21.2561 212.764 21.018 212.387 20.6779C212.011 20.3281 211.753 19.9248 211.614 19.468C211.485 19.0016 211.421 18.5205 211.421 18.0249C211.421 17.8986 211.426 17.7285 211.436 17.5148C211.446 17.301 211.485 16.611 211.555 15.4449L211.897 9.38095H209.755C209.805 8.79788 209.849 7.86011 209.889 6.56764H212.134C212.194 6.00401 212.253 5.0468 212.313 3.69603L214.068 3.36076C214.434 3.29274 215.143 3.1324 216.194 2.87973C216.124 4.19164 216.085 5.42094 216.075 6.56764H219.852C219.782 7.87955 219.748 8.81731 219.748 9.38095H215.956C215.748 13.3361 215.644 15.6246 215.644 16.2466C215.644 16.8491 215.708 17.3155 215.837 17.6459C215.976 17.9763 216.194 18.2144 216.491 18.3602C216.789 18.506 217.106 18.5789 217.443 18.5789C217.691 18.5789 217.949 18.5594 218.216 18.5205C218.494 18.4817 218.975 18.3748 219.659 18.1999Z" fill="#141448"/>
<path d="M221.696 21.2464L222.127 14.3225L222.246 10.2993C222.266 9.47327 222.276 8.64239 222.276 7.80666C222.276 7.66089 222.266 7.1993 222.246 6.42187C223.168 6.44131 223.847 6.45103 224.283 6.45103C224.789 6.45103 225.458 6.44131 226.29 6.42187L226.216 8.47719C226.593 7.95243 226.915 7.56372 227.183 7.31105C227.45 7.04867 227.748 6.82516 228.075 6.64052C228.412 6.45589 228.784 6.31498 229.19 6.2178C229.596 6.12062 230.013 6.07203 230.439 6.07203C230.836 6.07203 231.242 6.12062 231.658 6.2178C231.658 7.12156 231.703 8.26826 231.792 9.6579C231.207 9.50242 230.677 9.42468 230.201 9.42468C229.626 9.42468 229.116 9.51214 228.67 9.68706C228.233 9.85226 227.837 10.1098 227.48 10.4596C227.133 10.7997 226.846 11.2225 226.618 11.7278C226.429 12.1359 226.29 12.6656 226.201 13.3167C226.122 13.822 226.053 14.6869 225.993 15.9113C225.943 17.1358 225.919 18.3408 225.919 19.5263C225.919 19.9831 225.934 20.5564 225.963 21.2464C225.21 21.227 224.521 21.2172 223.896 21.2172C223.282 21.2172 222.548 21.227 221.696 21.2464Z" fill="#141448"/>
<path d="M234.692 9.67248C234.831 8.9728 234.915 8.48205 234.945 8.20023C234.984 7.91842 235.049 7.49083 235.138 6.91748C236.486 6.60651 237.676 6.38786 238.707 6.26153C239.738 6.1352 240.734 6.07203 241.695 6.07203C242.786 6.07203 243.787 6.19836 244.699 6.45103C245.611 6.69397 246.325 7.08754 246.84 7.63174C247.356 8.17594 247.614 8.95822 247.614 9.97859C247.614 10.5325 247.534 11.9464 247.376 14.2204C247.217 16.4847 247.123 18.8267 247.093 21.2464C246.34 21.227 245.646 21.2172 245.011 21.2172C244.407 21.2172 243.698 21.227 242.885 21.2464C243.014 20.0705 243.118 18.71 243.197 17.1649L243.391 13.5353C243.014 13.7783 242.726 13.9483 242.528 14.0455C242.33 14.1427 242.107 14.235 241.859 14.3225C241.611 14.4002 241.175 14.5265 240.551 14.7014C239.926 14.8666 239.425 15.0124 239.049 15.1387C238.672 15.2651 238.33 15.4108 238.023 15.576C237.725 15.7315 237.472 15.9113 237.264 16.1154C237.056 16.3097 236.902 16.5187 236.803 16.7422C236.714 16.956 236.67 17.1892 236.67 17.4419C236.67 17.85 236.788 18.2047 237.026 18.506C237.274 18.7975 237.582 19.0016 237.948 19.1182C238.315 19.2348 238.746 19.2931 239.242 19.2931C239.559 19.2931 239.891 19.2688 240.238 19.2202C240.595 19.1716 241.071 19.0502 241.666 18.8558C241.458 19.4097 241.215 20.2357 240.937 21.3338C240.233 21.4505 239.673 21.5233 239.257 21.5525C238.84 21.5817 238.454 21.5962 238.097 21.5962C236.848 21.5962 235.822 21.431 235.019 21.1006C234.216 20.7702 233.621 20.2455 233.235 19.5263C232.858 18.8072 232.67 18.0832 232.67 17.3544C232.67 16.9365 232.744 16.5235 232.893 16.1154C233.041 15.7072 233.259 15.3331 233.547 14.993C233.834 14.6529 234.206 14.3273 234.662 14.0163C235.118 13.6957 235.777 13.3895 236.64 13.098C237.502 12.7968 238.642 12.4955 240.06 12.1943C240.437 12.1165 240.828 12.0242 241.235 11.9173C241.641 11.8007 241.963 11.6889 242.201 11.582C242.449 11.4751 242.662 11.3391 242.84 11.1739C243.019 10.999 243.148 10.8192 243.227 10.6345C243.316 10.4499 243.361 10.2604 243.361 10.0661C243.361 9.68706 243.232 9.36637 242.974 9.10399C242.726 8.84161 242.399 8.66183 241.993 8.56465C241.596 8.45775 241.155 8.40431 240.669 8.40431C238.865 8.40431 236.873 8.82703 234.692 9.67248Z" fill="#141448"/>
<path d="M118.044 44.7976C118.175 42.9539 118.282 41.0647 118.364 39.1299C118.446 37.1897 118.487 35.7078 118.487 34.6841L118.479 33.8239L119.848 33.84C119.925 33.84 120.343 33.8346 121.103 33.8239C120.879 36.6431 120.737 40.301 120.677 44.7976L119.471 44.7816C119.269 44.7816 118.793 44.7869 118.044 44.7976Z" fill="#141448"/>
<path d="M125.351 44.7976L125.532 42.4501L125.712 38.953L125.827 35.5122H125.253L124.211 35.5283L122.317 35.5845C122.361 34.8128 122.385 34.2259 122.391 33.8239C123.965 33.8346 125.614 33.84 127.336 33.84L130.28 33.832L131.855 33.8239C131.8 34.5796 131.773 35.1611 131.773 35.5685C130.783 35.5202 129.834 35.4961 128.927 35.4961H128.295L128.197 36.9673L127.959 42.627L127.943 43.5757C127.937 43.9669 127.935 44.3742 127.935 44.7976L126.688 44.7816C126.551 44.7816 126.106 44.7869 125.351 44.7976Z" fill="#141448"/>
<path d="M136.554 44.5645C136.51 43.7498 136.453 43.0853 136.382 42.5707C137.453 43.0477 138.426 43.2862 139.301 43.2862C139.651 43.2862 139.976 43.2353 140.277 43.1335C140.583 43.0263 140.807 42.8789 140.949 42.6913C141.097 42.4984 141.171 42.284 141.171 42.0482C141.171 41.866 141.138 41.7025 141.073 41.5578C140.974 41.3595 140.81 41.1531 140.58 40.9387C140.263 40.644 139.697 40.1589 138.883 39.4836C138.495 39.1567 138.227 38.9235 138.079 38.7842C137.751 38.4787 137.5 38.2054 137.325 37.9642C137.15 37.7176 137.024 37.4738 136.947 37.2326C136.871 36.9914 136.833 36.7342 136.833 36.4608C136.833 35.957 136.975 35.4854 137.259 35.0459C137.549 34.6011 137.978 34.2554 138.547 34.0088C139.121 33.7569 139.842 33.631 140.712 33.631C141.493 33.631 142.374 33.7248 143.352 33.9123C143.38 34.4697 143.434 35.1075 143.516 35.8257C142.663 35.5041 141.876 35.3434 141.155 35.3434C140.619 35.3434 140.179 35.4639 139.834 35.7051C139.495 35.9409 139.326 36.217 139.326 36.5332C139.326 36.6189 139.337 36.71 139.359 36.8065C139.38 36.8976 139.413 36.9887 139.457 37.0799C139.501 37.1656 139.577 37.2808 139.687 37.4255C139.801 37.5649 139.965 37.731 140.179 37.924C140.397 38.1116 140.583 38.2643 140.736 38.3822L141.876 39.2826C142.133 39.4917 142.363 39.6953 142.565 39.8936C142.767 40.0919 142.94 40.2822 143.082 40.4644C143.229 40.6466 143.344 40.8208 143.426 40.987C143.508 41.1531 143.568 41.3246 143.607 41.5015C143.65 41.673 143.672 41.8552 143.672 42.0482C143.672 42.4984 143.566 42.9245 143.352 43.3264C143.139 43.723 142.833 44.05 142.434 44.3072C142.035 44.5645 141.597 44.7414 141.122 44.8378C140.646 44.9397 140.143 44.9906 139.613 44.9906C139.263 44.9906 138.856 44.9611 138.391 44.9021C137.926 44.8432 137.314 44.7306 136.554 44.5645Z" fill="#141448"/>
<path d="M149.79 36.4287C150.419 36.4287 151.02 36.5225 151.594 36.71C152.174 36.8923 152.663 37.1656 153.062 37.5301C153.467 37.8892 153.77 38.3313 153.973 38.8566C154.175 39.3764 154.276 39.9258 154.276 40.5046C154.276 41.1156 154.169 41.7052 153.956 42.2733C153.743 42.8414 153.434 43.3345 153.03 43.7525C152.625 44.1652 152.119 44.4761 151.512 44.6851C150.911 44.8888 150.269 44.9906 149.585 44.9906C148.951 44.9906 148.347 44.8995 147.773 44.7172C147.204 44.5297 146.718 44.251 146.313 43.8812C145.908 43.5113 145.599 43.0611 145.386 42.5305C145.178 41.9999 145.075 41.4452 145.075 40.8664C145.075 40.2768 145.17 39.7141 145.362 39.1781C145.553 38.6422 145.851 38.1652 146.256 37.7471C146.666 37.3291 147.188 37.0048 147.822 36.7744C148.456 36.5439 149.112 36.4287 149.79 36.4287ZM149.79 38.0848C149.314 38.0848 148.888 38.2 148.511 38.4305C148.139 38.6556 147.86 38.9932 147.674 39.4434C147.494 39.8936 147.404 40.384 147.404 40.9146C147.404 41.3809 147.477 41.7963 147.625 42.1607C147.778 42.5252 148.024 42.82 148.363 43.0451C148.708 43.2702 149.115 43.3827 149.585 43.3827C150.066 43.3827 150.487 43.2675 150.848 43.037C151.214 42.8012 151.488 42.4582 151.668 42.008C151.854 41.5524 151.947 41.0513 151.947 40.5046C151.947 40.0598 151.876 39.6551 151.734 39.2907C151.592 38.9262 151.351 38.6341 151.012 38.4144C150.679 38.1946 150.271 38.0848 149.79 38.0848Z" fill="#141448"/>
<path d="M155.695 44.7976C155.777 43.8919 155.875 42.2652 155.99 39.9177C156.11 37.5649 156.184 35.5336 156.211 33.8239C156.78 33.8346 157.185 33.84 157.425 33.84C157.748 33.84 158.141 33.8346 158.606 33.8239L158.409 36.7583L158.122 43.3023L158.09 44.7976C157.641 44.7869 157.261 44.7816 156.95 44.7816C156.846 44.7816 156.427 44.7869 155.695 44.7976Z" fill="#141448"/>
<path d="M168.611 44.7976C168.13 44.7869 167.761 44.7816 167.504 44.7816C167.182 44.7816 166.815 44.7869 166.405 44.7976L166.422 43.4631C166.269 43.6882 166.135 43.8704 166.02 44.0098C165.905 44.1438 165.755 44.2778 165.569 44.4117C165.383 44.5404 165.181 44.6449 164.962 44.7253C164.743 44.8003 164.492 44.8619 164.207 44.9102C163.929 44.9638 163.631 44.9906 163.314 44.9906C162.701 44.9906 162.168 44.9048 161.714 44.7333C161.261 44.5565 160.9 44.2912 160.632 43.9374C160.369 43.5837 160.238 43.0772 160.238 42.418V42.2492L160.369 40.175L160.492 37.4416C160.498 37.2219 160.501 36.9485 160.501 36.6216C161.02 36.6323 161.427 36.6377 161.723 36.6377C162.034 36.6377 162.411 36.6323 162.854 36.6216L162.584 40.2876C162.567 40.5716 162.554 40.8128 162.543 41.0111C162.537 41.204 162.534 41.3434 162.534 41.4291C162.534 41.815 162.592 42.1366 162.707 42.3939C162.827 42.6458 163.032 42.8387 163.322 42.9727C163.617 43.1067 163.931 43.1737 164.265 43.1737C164.582 43.1737 164.883 43.1147 165.167 42.9968C165.424 42.8896 165.643 42.7396 165.823 42.5466C166.009 42.3537 166.165 42.0937 166.29 41.7668C166.383 41.531 166.454 41.204 166.504 40.786C166.542 40.4912 166.577 39.9847 166.61 39.2666C166.654 38.3983 166.684 37.5167 166.701 36.6216C167.242 36.6323 167.655 36.6377 167.939 36.6377C168.261 36.6377 168.625 36.6323 169.03 36.6216C168.964 37.388 168.896 38.3474 168.825 39.4997C168.753 40.6466 168.704 41.5953 168.677 42.3456C168.65 43.0906 168.628 43.9079 168.611 44.7976Z" fill="#141448"/>
<path d="M175.763 43.1174C175.697 43.4122 175.593 43.9589 175.451 44.7574C174.992 44.8593 174.631 44.9236 174.368 44.9504C174.106 44.9772 173.86 44.9906 173.63 44.9906C173.226 44.9906 172.862 44.9531 172.54 44.878C172.222 44.803 171.96 44.6717 171.752 44.4841C171.545 44.2912 171.402 44.0687 171.326 43.8168C171.255 43.5596 171.219 43.2943 171.219 43.0209C171.219 42.9513 171.222 42.8575 171.227 42.7396C171.233 42.6216 171.255 42.2411 171.293 41.598L171.482 38.2536H170.301C170.328 37.932 170.353 37.4148 170.375 36.702H171.613C171.646 36.3911 171.678 35.8632 171.711 35.1183L172.679 34.9333C172.881 34.8958 173.272 34.8074 173.852 34.668C173.813 35.3916 173.792 36.0696 173.786 36.702H175.869C175.831 37.4255 175.812 37.9427 175.812 38.2536H173.721C173.606 40.4349 173.548 41.6971 173.548 42.0401C173.548 42.3724 173.584 42.6297 173.655 42.8119C173.731 42.9941 173.852 43.1255 174.016 43.2058C174.18 43.2862 174.355 43.3264 174.541 43.3264C174.677 43.3264 174.819 43.3157 174.967 43.2943C175.12 43.2728 175.385 43.2139 175.763 43.1174Z" fill="#141448"/>
<path d="M177.337 35.2228C177.359 34.6707 177.37 34.2473 177.37 33.9525V33.6953C177.867 33.706 178.272 33.7114 178.584 33.7114C179.01 33.7114 179.407 33.706 179.773 33.6953C179.756 33.8293 179.746 33.982 179.74 34.1535L179.699 35.2228C179.284 35.212 178.901 35.2067 178.551 35.2067C178.201 35.2067 177.796 35.212 177.337 35.2228ZM176.894 44.7976C176.976 43.9937 177.034 43.3211 177.067 42.7798C177.121 41.9222 177.168 40.9334 177.206 39.8132C177.25 38.6931 177.28 37.6292 177.296 36.6216C177.832 36.6323 178.234 36.6377 178.502 36.6377C178.748 36.6377 179.147 36.6323 179.699 36.6216C179.622 37.5542 179.56 38.4439 179.51 39.2907C179.467 40.1375 179.434 41.1076 179.412 42.2009C179.39 43.2943 179.379 44.1598 179.379 44.7976C178.882 44.7869 178.483 44.7816 178.182 44.7816C177.898 44.7816 177.468 44.7869 176.894 44.7976Z" fill="#141448"/>
<path d="M185.858 36.4287C186.487 36.4287 187.088 36.5225 187.662 36.71C188.242 36.8923 188.731 37.1656 189.13 37.5301C189.535 37.8892 189.838 38.3313 190.04 38.8566C190.243 39.3764 190.344 39.9258 190.344 40.5046C190.344 41.1156 190.237 41.7052 190.024 42.2733C189.811 42.8414 189.502 43.3345 189.097 43.7525C188.693 44.1652 188.187 44.4761 187.58 44.6851C186.979 44.8888 186.336 44.9906 185.653 44.9906C185.019 44.9906 184.415 44.8995 183.841 44.7172C183.272 44.5297 182.785 44.251 182.381 43.8812C181.976 43.5113 181.667 43.0611 181.454 42.5305C181.246 41.9999 181.142 41.4452 181.142 40.8664C181.142 40.2768 181.238 39.7141 181.429 39.1781C181.621 38.6422 181.919 38.1652 182.323 37.7471C182.733 37.3291 183.256 37.0048 183.89 36.7744C184.524 36.5439 185.18 36.4287 185.858 36.4287ZM185.858 38.0848C185.382 38.0848 184.956 38.2 184.579 38.4305C184.207 38.6556 183.928 38.9932 183.742 39.4434C183.562 39.8936 183.471 40.384 183.471 40.9146C183.471 41.3809 183.545 41.7963 183.693 42.1607C183.846 42.5252 184.092 42.82 184.431 43.0451C184.775 43.2702 185.183 43.3827 185.653 43.3827C186.134 43.3827 186.555 43.2675 186.916 43.037C187.282 42.8012 187.556 42.4582 187.736 42.008C187.922 41.5524 188.015 41.0513 188.015 40.5046C188.015 40.0598 187.944 39.6551 187.802 39.2907C187.659 38.9262 187.419 38.6341 187.08 38.4144C186.746 38.1946 186.339 38.0848 185.858 38.0848Z" fill="#141448"/>
<path d="M191.697 44.7976C191.823 43.581 191.927 42.2143 192.009 40.6976C192.096 39.1808 192.145 37.8222 192.156 36.6216C192.659 36.6323 193.061 36.6377 193.362 36.6377C193.717 36.6377 194.094 36.6323 194.494 36.6216L194.403 37.9883C194.573 37.7525 194.72 37.5649 194.846 37.4255C194.977 37.2862 195.141 37.1495 195.338 37.0155C195.541 36.8816 195.754 36.7744 195.978 36.694C196.208 36.6136 196.462 36.5493 196.741 36.501C197.025 36.4528 197.32 36.4287 197.626 36.4287C198.113 36.4287 198.578 36.4903 199.021 36.6136C199.469 36.7315 199.83 36.9217 200.103 37.1844C200.376 37.447 200.557 37.7337 200.644 38.0446C200.732 38.3554 200.775 38.685 200.775 39.0334C200.775 39.1781 200.767 39.4086 200.751 39.7248L200.579 43.238C200.557 43.7257 200.543 44.2456 200.538 44.7976C200.106 44.7869 199.737 44.7816 199.431 44.7816C199.015 44.7816 198.597 44.7869 198.176 44.7976C198.22 44.3314 198.274 43.5194 198.34 42.3617C198.405 41.1987 198.438 40.4296 198.438 40.0544C198.438 39.631 198.37 39.2907 198.233 39.0334C198.097 38.7762 197.883 38.5805 197.594 38.4465C197.309 38.3126 197 38.2456 196.667 38.2456C196.339 38.2456 196.033 38.3072 195.748 38.4305C195.464 38.5537 195.218 38.7333 195.01 38.9691C194.792 39.2103 194.622 39.5077 194.502 39.8615C194.376 40.2366 194.283 40.8557 194.223 41.7186C194.168 42.485 194.125 43.5113 194.092 44.7976C193.671 44.7869 193.291 44.7816 192.952 44.7816C192.607 44.7816 192.189 44.7869 191.697 44.7976Z" fill="#141448"/>
<path d="M202.293 44.6449L202.112 42.8762C202.648 43.0906 203.102 43.2407 203.474 43.3264C203.845 43.4068 204.187 43.447 204.499 43.447C204.81 43.447 205.073 43.4122 205.286 43.3425C205.499 43.2675 205.658 43.1603 205.762 43.0209C205.866 42.8762 205.917 42.7262 205.917 42.5707C205.917 42.5011 205.909 42.4367 205.893 42.3778C205.882 42.3188 205.857 42.2572 205.819 42.1929C205.786 42.1286 205.745 42.0696 205.696 42.016C205.652 41.9571 205.589 41.8927 205.507 41.8231C205.425 41.748 205.308 41.6543 205.155 41.5417L204.712 41.196C204.286 40.8691 203.96 40.6118 203.736 40.4242C203.512 40.2366 203.323 40.0464 203.17 39.8534C203.017 39.6551 202.9 39.4488 202.818 39.2344C202.741 39.0147 202.703 38.7922 202.703 38.5671C202.703 38.1759 202.823 37.8034 203.064 37.4497C203.31 37.0959 203.665 36.8387 204.13 36.6779C204.594 36.5117 205.141 36.4287 205.77 36.4287C206.486 36.4287 207.312 36.5117 208.247 36.6779L208.353 38.3581C207.719 38.1062 207.109 37.9803 206.524 37.9803C206.207 37.9803 205.928 38.0124 205.688 38.0767C205.453 38.1357 205.283 38.2295 205.179 38.3581C205.076 38.4814 205.024 38.6207 205.024 38.7762C205.024 38.8673 205.04 38.9584 205.073 39.0495C205.106 39.1353 205.163 39.2264 205.245 39.3228C205.327 39.4193 205.42 39.5104 205.524 39.5962C205.633 39.6819 205.857 39.8507 206.196 40.1026C206.535 40.3545 206.831 40.5823 207.082 40.786C207.339 40.9897 207.549 41.196 207.714 41.405C207.878 41.6087 208.003 41.8284 208.091 42.0643C208.178 42.3001 208.222 42.5386 208.222 42.7798C208.222 43.1817 208.096 43.5542 207.845 43.8972C207.593 44.2402 207.213 44.5082 206.705 44.7012C206.196 44.8941 205.628 44.9906 204.999 44.9906C204.671 44.9906 204.272 44.9638 203.802 44.9102C203.331 44.8619 202.828 44.7735 202.293 44.6449Z" fill="#141448"/>
</svg>
